<?xml version="1.0" encoding="utf-8"?>
<!-- Generator: Adobe Illustrator 26.3.1, SVG Export Plug-In . SVG Version: 6.00 Build 0)  -->
<svg version="1.1" id="Layer_1" xmlns="http://www.w3.org/2000/svg" xmlns:xlink="http://www.w3.org/1999/xlink" x="0px" y="0px"
	 viewBox="0 0 700 700" style="enable-background:new 0 0 700 700;" xml:space="preserve">
<style type="text/css">
	.st0{fill:none;stroke:#E8853E;stroke-width:18.6666;stroke-linecap:round;stroke-linejoin:round;stroke-miterlimit:37.3332;}
</style>
<path class="st0" d="M451.9,590.8c-65.4,26.5-138.5,26.5-203.8,0"/>
<path class="st0" d="M558,513.1c91.5-110,81.7-272.2-22.6-370.3c-104.2-98.1-266.7-98.1-371,0C60.3,240.9,50.4,403.1,142,513.1"/>
<path class="st0" d="M539.6,533.2c-20.6,20.3-44.4,37.2-70.5,49.8"/>
<path class="st0" d="M230.9,583c-26-12.7-49.9-29.5-70.5-49.8"/>
<path class="st0" d="M537.9,478.2c71-96.5,57.5-231.1-31.4-311.4s-224.1-80.4-313,0s-102.4,215-31.4,311.4"/>
<path class="st0" d="M433.1,558c-53.5,20.4-112.6,20.4-166.1,0"/>
<path class="st0" d="M437,364L437,364"/>
<path class="st0" d="M332.2,403.9L332.2,403.9"/>
<g>
	<path class="st0" d="M336.6,435.3L336.6,435.3c-2.4-3.8-6.3-6.4-10.7-7.2c-4.4-0.8-8.9,0.4-12.5,3.1l0,0c-4.3,3.4-10,4.3-15.1,2.4
		c-5.1-1.8-8.9-6.2-10.1-11.5v0c-0.9-4.4-3.7-8.1-7.6-10.4c-3.9-2.2-8.5-2.7-12.8-1.3l-0.1,0c-5.1,1.7-10.8,0.7-15-2.8
		c-4.2-3.5-6.3-8.8-5.5-14.2l0,0c0.6-4.4-0.7-8.9-3.6-12.3c-2.9-3.4-7.1-5.4-11.6-5.5h0c-5.4-0.1-10.4-3-13.1-7.7
		c-2.7-4.7-2.9-10.4-0.3-15.2l0,0c2.1-3.9,2.5-8.6,0.9-12.7c-1.5-4.2-4.8-7.5-9-9.1l0,0c-5.1-1.9-8.7-6.4-9.7-11.7
		c-1-5.3,1-10.8,5-14.3l0,0c3.4-2.9,5.3-7.2,5.3-11.6c0-4.4-1.9-8.7-5.3-11.6l0,0c-4.1-3.6-6-9-5-14.3c1-5.3,4.6-9.8,9.7-11.7l0,0
		c4.2-1.6,7.4-4.9,9-9.1c1.5-4.2,1.2-8.8-0.9-12.7l0-0.1c-2.6-4.8-2.5-10.5,0.3-15.2c2.7-4.7,7.7-7.6,13.1-7.7h0
		c4.5-0.1,8.7-2.1,11.6-5.5c2.9-3.4,4.2-7.9,3.6-12.3l0,0c-0.7-5.4,1.3-10.7,5.5-14.2c4.2-3.5,9.8-4.5,15-2.8l0.1,0
		c4.2,1.4,8.9,0.9,12.8-1.3c3.9-2.2,6.6-6,7.6-10.4c1.2-5.3,5-9.7,10.1-11.5c5.1-1.8,10.8-0.9,15.1,2.4l0,0
		c3.5,2.8,8.1,3.9,12.5,3.1c4.4-0.8,8.3-3.4,10.7-7.1l0-0.1c2.9-4.6,8-7.4,13.4-7.4c5.4,0,10.5,2.8,13.4,7.4l0,0.1
		c2.4,3.8,6.3,6.4,10.7,7.1c4.4,0.8,8.9-0.4,12.5-3.1l0,0c4.3-3.4,10-4.3,15.1-2.4c5.1,1.8,8.9,6.2,10.1,11.5v0
		c0.9,4.4,3.7,8.1,7.6,10.4c3.9,2.2,8.5,2.7,12.8,1.3l0.1,0c5.1-1.7,10.8-0.7,15,2.8c4.2,3.5,6.3,8.8,5.5,14.2l0,0
		c-0.6,4.4,0.7,8.9,3.6,12.3c2.9,3.4,7.1,5.4,11.6,5.5h0c5.4,0.1,10.4,3,13.1,7.7c2.7,4.7,2.9,10.4,0.3,15.2l0,0
		c-2.1,3.9-2.5,8.5-0.9,12.7c1.5,4.2,4.8,7.5,9,9.1l0,0c5.1,1.9,8.7,6.4,9.7,11.7c1,5.3-1,10.8-5,14.3l0,0
		c-3.4,2.9-5.3,7.2-5.3,11.6c0,4.5,1.9,8.7,5.3,11.6l0,0c4.1,3.6,6,9,5,14.3c-1,5.3-4.6,9.8-9.7,11.7l0,0c-4.2,1.6-7.4,4.9-9,9.1
		c-1.5,4.2-1.2,8.8,0.9,12.7l0,0.1c2.6,4.8,2.5,10.5-0.3,15.2c-2.7,4.7-7.7,7.6-13.1,7.7h0c-4.5,0.1-8.7,2.1-11.6,5.5
		c-2.9,3.4-4.2,7.9-3.6,12.3l0,0c0.7,5.4-1.3,10.8-5.5,14.2c-4.2,3.5-9.8,4.5-15,2.8l-0.1,0c-4.2-1.4-8.9-0.9-12.8,1.3
		c-3.9,2.2-6.6,6-7.6,10.4c-1.2,5.3-5,9.7-10.1,11.5c-5.1,1.8-10.8,0.9-15.1-2.4l0,0c-3.5-2.8-8.1-3.9-12.5-3.1
		c-4.4,0.8-8.3,3.4-10.7,7.1l0,0.1c-2.9,4.6-8,7.4-13.4,7.4C344.6,442.7,339.5,439.9,336.6,435.3L336.6,435.3z"/>
	<path class="st0" d="M462,293.3c0,61.9-50.1,112-112,112s-112-50.1-112-112s50.1-112,112-112S462,231.5,462,293.3"/>
	<path class="st0" d="M358.4,232.1l12.5,25.3c1.4,2.7,4,4.7,7,5.1l28,4c3.5,0.5,6.4,3,7.5,6.4c1.1,3.4,0.2,7.1-2.4,9.6L390.9,302
		c-2.2,2.1-3.2,5.2-2.7,8.3l4.8,27.7c0.6,3.5-0.8,7-3.7,9.1c-2.9,2.1-6.7,2.4-9.8,0.7l-25.1-13.1c-2.7-1.4-5.9-1.4-8.7,0l-25.1,13.1
		c-3.1,1.6-7,1.4-9.8-0.7c-2.9-2.1-4.3-5.6-3.7-9.1l4.8-27.7c0.5-3-0.5-6.1-2.7-8.3L289,282.5c-2.6-2.5-3.5-6.2-2.4-9.6
		c1.1-3.4,4-5.9,7.5-6.4l28-4c3-0.4,5.7-2.3,7-5.1l12.5-25.3c1.6-3.2,4.8-5.2,8.4-5.2S356.8,228.9,358.4,232.1L358.4,232.1z"/>
	<path class="st0" d="M476.8,372.7l61,105.6l20.2,34.9l18.4,31.8l-36.9-11.8l-41.2-13.3l-14.6-4.7l-4,18.6L469.1,583l-5.9,27.3
		l-11.3-19.5L433.1,558l-70.3-121.7"/>
	<path class="st0" d="M223.2,372.7l-61,105.6L142,513.1L123.6,545l36.9-11.8l41.2-13.3l14.6-4.7l4,18.6l10.7,49.2l5.9,27.3
		l11.3-19.5l18.9-32.8l70.3-121.7"/>
</g>
<path class="st0" d="M263.1,364L263.1,364"/>
</svg>
