<?xml version="1.0" encoding="utf-8"?>
<!-- Generator: Adobe Illustrator 26.3.1, SVG Export Plug-In . SVG Version: 6.00 Build 0)  -->
<svg version="1.1" id="Layer_1" xmlns="http://www.w3.org/2000/svg" xmlns:xlink="http://www.w3.org/1999/xlink" x="0px" y="0px"
	 viewBox="0 0 700 700" style="enable-background:new 0 0 700 700;" xml:space="preserve">
<style type="text/css">
	.st0{fill:#E8853E;}
</style>
<path class="st0" d="M369.9,347.9h-4.5v-83.4h4.5c18.5,0,34.7,12.3,39.8,30.8c2.2,8.4,11.2,13.4,19.6,11.2
	c8.4-2.2,13.4-11.2,11.2-19.6c-8.4-31.9-37.5-53.8-70.6-53.8h-4.5v-44.8c0-9-7.3-15.7-15.7-15.7c-9,0-15.7,7.3-15.7,15.7v44.8h-4.5
	c-19.6,0-38.1,7.8-51.5,21.3c-14,14-21.3,31.9-21.3,51.5c0,40.3,33,73.4,73.4,73.4h4.5v82.9h-4.5c-18.5,0-34.7-12.3-39.8-29.7
	c-1.7-7.3-7.8-12.9-15.7-12.9c-9,0-15.7,7.3-15.7,15.7c0,1.7,0,2.8,0.6,4.5c9,31.9,37.5,53.8,70.6,53.8h4.5v44.8
	c0,9,7.3,15.7,15.7,15.7c9,0,15.7-7.3,15.7-15.7v-44.8h4.5c40.3,0,73.4-33,73.4-73.4c0-19.6-7.8-38.1-21.3-51.5
	C408,355.2,389.5,347.9,369.9,347.9L369.9,347.9z M329.6,347.9c-23,0-41.4-18.5-41.4-41.4c0-11.2,4.5-21.8,11.8-29.1
	c7.8-7.8,18.5-12.3,29.1-12.3h4.5v82.9L329.6,347.9z M369.9,462.7h-4.5v-83.4h4.5c11.2,0,21.3,4.5,29.1,12.3s11.8,17.9,11.8,29.1
	C411.3,443.7,392.8,462.7,369.9,462.7z"/>
<path class="st0" d="M350.3,97.3c-146.7,0-266,119.3-266,266s119.3,266,266,266s266-119.3,266-266S497,97.3,350.3,97.3z
	 M116.2,363.3c0-58.8,21.8-112.6,58.2-154l39.8,39.8c3.4,3.4,7.3,4.5,11.2,4.5c3.9,0,7.8-1.7,11.2-4.5c6.2-6.2,6.2-16.2,0-22.4
	l-39.8-39.8c41.4-35.8,95.2-58.2,154-58.2c129.4,0,234.1,105.3,234.1,234.1c0,58.8-21.8,112.6-58.2,154L486.9,477
	c-6.2-6.2-16.2-6.2-22.4,0c-6.2,6.2-6.2,16.2,0,22.4l39.8,39.8c-41.4,35.8-95.2,58.2-154,58.2C220.9,597.4,116.2,492.7,116.2,363.3z
	"/>
</svg>
