<?xml version="1.0" encoding="utf-8"?>
<!-- Generator: Adobe Illustrator 26.3.1, SVG Export Plug-In . SVG Version: 6.00 Build 0)  -->
<svg version="1.1" id="Layer_1" xmlns="http://www.w3.org/2000/svg" xmlns:xlink="http://www.w3.org/1999/xlink" x="0px" y="0px"
	 viewBox="0 0 700 700" style="enable-background:new 0 0 700 700;" xml:space="preserve">
<style type="text/css">
	.st0{fill:#FFFFFF;}
</style>
<g id="Group_32" transform="translate(93.636 123.613) rotate(-166)">
	<path id="Path_68" class="st0" d="M-343.9-101.1c0.8,0.3,1.7,0.2,2.3-0.4l87.6-74.2c0.9-0.8,1.1-2.2,0.3-3.2
		c-0.5-0.5-1.2-0.8-1.9-0.8l-30.3,2.3l-16.5-25.9c-0.4-0.6-1.1-1-1.9-1c-0.2,0-0.4,0-0.6,0.1c-0.7,0.2-1.3,0.7-1.5,1.4l-7.5,20.2
		l-33.1-7.2c-1.2-0.3-2.4,0.5-2.7,1.7c0,0.2-0.1,0.4,0,0.6l4.4,84.4C-345.2-102.2-344.7-101.5-343.9-101.1L-343.9-101.1z
		 M-262.1-174.7l-65.7,55.7l42-53.9L-262.1-174.7z M-303-177.4L-303-177.4c0.1-0.3,0.2-0.6,0.2-0.9l0.5-16.4l12.4,19.6l-40.8,52.3
		L-303-177.4z M-308.3-176.8l-32.9,65l-3.8-73.1L-308.3-176.8z"/>
</g>
</svg>
