<?xml version="1.0" encoding="utf-8"?>
<!-- Generator: Adobe Illustrator 26.3.1, SVG Export Plug-In . SVG Version: 6.00 Build 0)  -->
<svg version="1.1" id="Layer_1" xmlns="http://www.w3.org/2000/svg" xmlns:xlink="http://www.w3.org/1999/xlink" x="0px" y="0px"
	 viewBox="0 0 700 700" style="enable-background:new 0 0 700 700;" xml:space="preserve">
<style type="text/css">
	.st0{fill:#E8853E;}
</style>
<path class="st0" d="M593.7,452c-1.6-2.6-4.4-4.1-7.4-4.1h-87.6c-0.5-30.2-3.9-60.4-10.2-89.9l52.8-89.3l-15.1-8.9L481.7,335
	c-7-19.2-16.9-34.2-30.9-38.9c-16.3-5.8-33-10.4-50-13.7l-6.1-24.5c4.9-5.8,8.6-12.6,10.9-19.8c12.2-13.8,17-26.1,14.4-36.5h0
	c-0.2-0.7-0.5-1.5-0.8-2.2c0.3,0,0.6,0,0.9,0c4.2,0,7.7-2.9,8.6-7c0.4-1.8,8.4-43.5-15.1-72.2h0c-5.5-6.7-12.3-12.1-20-16.1
	c-1.3-1.5-3-2.4-4.9-2.8c-0.2,0-0.8-0.1-1.8-0.3c-11.7-4.4-24.2-6.5-36.8-6.3c-28.3,0-49.7,8.5-63.5,25.4
	c-23.5,28.7-15.5,70.5-15.1,72.2c0.8,4.1,4.4,7,8.6,7c0.3,0,0.6-0.1,0.9-0.1c-0.3,0.7-0.6,1.5-0.8,2.2c-2.7,10.4,2.1,22.7,14.4,36.5
	v0c2.3,7.3,6,14,10.9,19.9l-6.1,24.5c-17,3.3-33.7,7.9-50,13.7c-13.7,4.6-24.3,18.4-32.2,41.9c-1.6-2.4-4.2-3.8-7.1-3.8h-35
	c-4.8,0-8.8,3.9-8.8,8.8v43.8H140c-4.8,0-8.8,3.9-8.8,8.8v52.5h-17.5c-3,0-5.9,1.6-7.4,4.1c-1.6,2.6-1.7,5.8-0.4,8.5l35,70
	c0.1,0.1,0.2,0.2,0.2,0.3s0.1,0.3,0.2,0.4c0.2,0.3,0.4,0.5,0.6,0.7c0.2,0.3,0.4,0.5,0.6,0.8c0.3,0.3,0.7,0.6,1,0.9
	c0.2,0.2,0.5,0.4,0.8,0.6c0.4,0.2,0.9,0.4,1.4,0.6c0.3,0.1,0.5,0.2,0.7,0.3v0c0.8,0.2,1.5,0.3,2.3,0.3h53.5l7.8,62.3
	c0.5,4.4,4.3,7.7,8.7,7.7h262.5c4.4,0,8.1-3.3,8.7-7.7l7.8-62.3h53.5c0.8,0,1.6-0.1,2.3-0.3c0.2-0.1,0.5-0.2,0.7-0.3
	c0.5-0.2,0.9-0.4,1.4-0.6c0.3-0.2,0.5-0.4,0.8-0.6c0.4-0.3,0.7-0.6,1-0.9c0.2-0.2,0.4-0.5,0.6-0.8c0.2-0.2,0.4-0.5,0.6-0.7
	c0.1-0.1,0.1-0.3,0.2-0.4s0.2-0.2,0.2-0.3l35-70C595.4,457.8,595.3,454.6,593.7,452L593.7,452z M481.1,447.8h-45.8l39.8-67.4
	C478.7,402.7,480.7,425.2,481.1,447.8L481.1,447.8z M469.9,355L415,447.8h-55.9v-50.8l40.1-97.2c15.6,3.2,30.9,7.5,46,12.8
	C456.1,316.3,464.2,333.1,469.9,355L469.9,355z M350,281.6c10.7-1.3,20.9-5.3,29.7-11.5l4.2,17l-33.6,27.1L316.1,287l4.2-16.9v0
	C329.1,276.4,339.3,280.3,350,281.6L350,281.6z M345,332.2c3.2,2.5,7.7,2.5,10.9-0.1l16.7-13.5l-22.3,53.9l-22.8-54.2L345,332.2z
	 M412.3,181.4c-10.2-1-19.8-5.1-27.6-11.8c7.1-13.2,10.9-28,11.1-43c1.5,1.4,2.8,2.8,4.1,4.4C410.1,145.8,414.5,163.7,412.3,181.4
	L412.3,181.4z M345.8,128.8c9.3-7.2,20.7-11,32.5-10.8h0.2c0.5,24.8-5.5,43-17.7,54.2c-10.7,8.9-24.2,13.6-38.1,13.2
	C324.5,158.8,332.3,139.8,345.8,128.8L345.8,128.8z M300.1,131.1c9.7-10.7,23.2-17.2,37.6-18.1c-0.9,0.7-1.8,1.3-2.7,2
	c-16,12.9-25.6,33.5-28.9,60.9h0c-5.8,2.9-12,4.8-18.4,5.5C285.5,163.7,289.9,145.8,300.1,131.1L300.1,131.1z M297.1,205.9
	c0.5-1.6,1.7-2.9,3.3-3.6c2.5-0.8,4.5-2.8,5.4-5.2c1.2,2.7,3.6,4.6,6.5,5.1c3.5,0.5,6.9,0.7,10.4,0.7c18.2,0.4,36-5.9,49.9-17.7
	c0.5-0.5,1-1,1.5-1.5v0c5.9,4.9,12.7,8.8,20,11.4c0.4,3.3,2.6,6.1,5.6,7.3c1.6,0.7,2.9,2,3.4,3.6c0.4,1.7,0.7,8.2-11.6,21.7
	c-0.9,1-1.5,2.1-1.9,3.3c-1.8,6.8-5.3,13-10.3,17.9c-8.3,7.4-18.3,12.6-29.1,15.2c-10.8-2.6-20.8-7.8-29.1-15.2
	c-5-4.9-8.5-11.1-10.3-17.9c-0.4-1.2-1-2.4-1.9-3.3C296.3,214.1,296.6,207.6,297.1,205.9L297.1,205.9z M254.8,312.6
	c15-5.3,30.4-9.6,46-12.8l40.9,97.2v50.8h-87.9v-78.8c0-2.3-0.9-4.5-2.6-6.2s-3.9-2.6-6.2-2.6h-16.1
	C237.4,323.8,248.6,314.7,254.8,312.6L254.8,312.6z M218.7,377.8h17.5v70h-17.5V377.8z M183.7,351.6h17.5v96.2h-17.5V351.6z
	 M148.7,404.1h17.5v43.8h-17.5V404.1z M307.1,587.8c2.7-13.3,11.4-24.6,23.6-30.6c12.2-6,26.4-6,38.6,0c12.2,6,20.9,17.3,23.6,30.6
	H307.1z M473.5,587.8h-63c-2.8-19.6-14.9-36.6-32.5-45.7c-17.6-9.1-38.5-9.1-56.1,0c-17.6,9.1-29.7,26.1-32.5,45.7h-63l-6.6-52.5
	h260.2L473.5,587.8z M162.9,517.8l8.8-17.5h356.7l8.8,17.5H162.9z M551.3,507l-9.7-19.3v0c-1.5-3-4.5-4.8-7.8-4.8H166.3
	c-3.3,0-6.3,1.9-7.8,4.8l-9.7,19.3l-20.8-41.7h444.2L551.3,507z"/>
</svg>
