<?xml version="1.0" encoding="utf-8"?>
<!-- Generator: Adobe Illustrator 26.3.1, SVG Export Plug-In . SVG Version: 6.00 Build 0)  -->
<svg version="1.1" id="Layer_1" xmlns="http://www.w3.org/2000/svg" xmlns:xlink="http://www.w3.org/1999/xlink" x="0px" y="0px"
	 viewBox="0 0 527 211.8" style="enable-background:new 0 0 527 211.8;" xml:space="preserve">
<style type="text/css">
	.st0{fill:#75D3DD;}
	.st1{fill:#2E2D54;}
	.st2{fill:#0D5095;}
</style>
<g>
	<path class="st0" d="M428.3,19.8l-62.5,36.1l-0.2,0.1l0,72.3l62.5,36.1l0.2,0.1l62.5-36.1l0.2-0.1V56L428.3,19.8z M459.1,75.2
		l27.9-16l-27.8,48.1L459.1,75.2z M427.5,159.4l-28-48.5l18.7,10.8l9.5,5.6L427.5,159.4z M425.1,158.7l-55.5-32l-0.5-0.9l0,0V61.6
		L425.1,158.7z M397.3,107.3l-27.8-48.1l27.9,15.9L397.3,107.3z M427.6,124.8l-26.9-15.8l3-1.8l-0.8-1.4l-3.4,2l0.1-31.4l11.7,6.7
		c-1.4,2.7-2.2,5.8-2.2,8.9c0,10.3,8.3,18.9,18.5,19.4L427.6,124.8z M417.3,99.3l-0.8-1.4l-3.7,2.1c-1.3-2.4-2-5.2-2-8.2
		c0-2.8,0.7-5.6,1.9-8l14.1,8l-0.8,0.4l0.8,1.4l0.8-0.4l-0.1,16.2c-5.9-0.3-11-3.4-14-8.1L417.3,99.3z M427.6,69l0,3.5
		c-6.4,0.3-12.1,3.7-15.5,9.1l-11.7-6.6l27.9-16.1L456,75.1l-11.1,6.4c-3.4-5.4-9.2-8.8-15.6-9l0-3.5L427.6,69z M428.6,74.1
		C428.6,74.1,428.6,74.1,428.6,74.1c6.1,0,11.6,3.1,14.9,8.2l-14.9,8.6l0,0l0,0l-14.9-8.5C416.9,77.2,422.5,74.1,428.6,74.1z
		 M431,92.3l-0.8-0.4l14.1-8.1c1.3,2.5,2,5.3,2,8.1c0,3-0.7,5.7-2.1,8.2l-3.7-2.2l-0.8,1.4l3.7,2.2c-3,4.6-8.2,7.8-14.1,8.1
		l0.1-16.2l0.8,0.4L431,92.3z M429.3,111.2c10.3-0.4,18.6-9,18.6-19.4c0-3.1-0.8-6.2-2.2-8.9l11.2-6.4l0.1,31.1l-3.1-1.8l-0.8,1.4
		l3.2,1.8l-27,15.7L429.3,111.2z M398.3,73.6l-27.8-15.8h55.3L398.3,73.6z M458.2,73.8l-27.2-16h55.2L458.2,73.8z M429.1,24.3
		l55.2,31.9h-55.1l0-3l-1.6,0l0,3h-55.4l55.2-31.9l0,1.8l1.6,0L429.1,24.3z M429.2,127.3l27.7-16.1l-27.9,48.3L429.2,127.3z
		 M487.5,61.6v64.1l-0.5,0.9l-55.5,32L487.5,61.6z"/>
	
		<rect x="385.5" y="114.7" transform="matrix(0.8647 -0.5022 0.5022 0.8647 -5.5499 210.3672)" class="st0" width="4.6" height="1.6"/>
	
		<rect x="378.7" y="118.6" transform="matrix(0.8647 -0.5022 0.5022 0.8647 -8.4495 207.487)" class="st0" width="4.6" height="1.6"/>
	
		<rect x="371.9" y="122.5" transform="matrix(0.8649 -0.502 0.502 0.8649 -11.3688 204.5113)" class="st0" width="4.6" height="1.6"/>
	
		<rect x="405.9" y="102.8" transform="matrix(0.8647 -0.5022 0.5022 0.8647 3.1477 219.0086)" class="st0" width="4.6" height="1.6"/>
	
		<rect x="392.3" y="110.7" transform="matrix(0.8647 -0.5022 0.5022 0.8647 -2.6506 213.248)" class="st0" width="4.6" height="1.6"/>
	<rect x="419.5" y="95" transform="matrix(0.8648 -0.5021 0.5021 0.8648 8.9332 224.7261)" class="st0" width="4.6" height="1.6"/>
	
		<rect x="468.2" y="113.2" transform="matrix(0.5053 -0.863 0.863 0.5053 132.3523 461.8376)" class="st0" width="1.6" height="4.6"/>
	
		<rect x="481.6" y="121.1" transform="matrix(0.5051 -0.8631 0.8631 0.5051 132.3022 477.4454)" class="st0" width="1.6" height="4.6"/>
	
		<rect x="461.4" y="109.3" transform="matrix(0.505 -0.8631 0.8631 0.505 132.5269 454.179)" class="st0" width="1.6" height="4.6"/>
	
		<rect x="474.9" y="117.1" transform="matrix(0.505 -0.8631 0.8631 0.505 132.3891 469.702)" class="st0" width="1.6" height="4.6"/>
	
		<rect x="448" y="101.4" transform="matrix(0.5051 -0.8631 0.8631 0.5051 132.6464 438.639)" class="st0" width="1.6" height="4.6"/>
	
		<rect x="434.5" y="93.5" transform="matrix(0.5051 -0.8631 0.8631 0.5051 132.7671 423.1003)" class="st0" width="1.6" height="4.6"/>
	
		<rect x="427.7" y="84.8" transform="matrix(1 -4.011429e-03 4.011429e-03 1 -0.346 1.7197)" class="st0" width="1.6" height="4.6"/>
	
		<rect x="427.6" y="61.1" transform="matrix(1 -3.879501e-03 3.879501e-03 1 -0.2426 1.6626)" class="st0" width="1.6" height="4.6"/>
	
		<rect x="427.5" y="29.4" transform="matrix(1 -3.981592e-03 3.981592e-03 1 -0.1228 1.7056)" class="st0" width="1.6" height="4.6"/>
	
		<rect x="427.5" y="37.3" transform="matrix(1 -4.012579e-03 4.012579e-03 1 -0.1555 1.7191)" class="st0" width="1.6" height="4.6"/>
	<rect x="427.7" y="76.9" transform="matrix(1 -4.012579e-03 4.012579e-03 1 -0.3144 1.72)" class="st0" width="1.6" height="4.6"/>
	
		<rect x="427.6" y="45.2" transform="matrix(1 -4.011429e-03 4.011429e-03 1 -0.1872 1.7188)" class="st0" width="1.6" height="4.6"/>
</g>
<path class="st1" d="M64.5,55.1c0.6,0,1.1-0.2,1.5-0.6c0.4-0.4,0.6-0.9,0.6-1.5s-0.2-1.1-0.6-1.5c-0.4-0.4-0.9-0.6-1.5-0.6
	c-0.6,0-1.1,0.2-1.5,0.6c-0.4,0.4-0.6,0.9-0.6,1.5s0.2,1.1,0.6,1.5C63.4,54.9,63.9,55.1,64.5,55.1z"/>
<path class="st1" d="M59.4,55.1c0.6,0,1.1-0.2,1.5-0.6c0.4-0.4,0.6-0.9,0.6-1.5s-0.2-1.1-0.6-1.5c-0.4-0.4-0.9-0.6-1.5-0.6
	c-0.6,0-1.1,0.2-1.5,0.6c-0.4,0.4-0.6,0.9-0.6,1.5s0.2,1.1,0.6,1.5C58.3,54.9,58.8,55.1,59.4,55.1z"/>
<path class="st1" d="M107.6,82.3c0.4-0.4,0.6-0.9,0.6-1.5c0-0.6-0.2-1.1-0.6-1.5c-0.4-0.4-0.9-0.6-1.5-0.6c-0.6,0-1.1,0.2-1.5,0.6
	c-0.4,0.4-0.6,0.9-0.6,1.5c0,0.6,0.2,1.1,0.6,1.5c0.4,0.4,0.9,0.6,1.5,0.6C106.7,83,107.2,82.7,107.6,82.3z"/>
<path class="st1" d="M112.7,82.3c0.4-0.4,0.6-0.9,0.6-1.5c0-0.6-0.2-1.1-0.6-1.5c-0.4-0.4-0.9-0.6-1.5-0.6s-1.1,0.2-1.5,0.6
	c-0.4,0.4-0.6,0.9-0.6,1.5c0,0.6,0.2,1.1,0.6,1.5c0.4,0.4,0.9,0.6,1.5,0.6S112.3,82.7,112.7,82.3z"/>
<path class="st1" d="M145.7,57c0.6,0,1.1-0.2,1.6-0.6c0.4-0.4,0.6-0.9,0.6-1.5s-0.2-1.1-0.6-1.5c-0.4-0.4-1-0.6-1.6-0.6
	s-1.1,0.2-1.5,0.6c-0.4,0.4-0.6,0.9-0.6,1.5s0.2,1.1,0.6,1.5C144.6,56.8,145.1,57,145.7,57z"/>
<path class="st1" d="M165.4,55.5c0.6,0,1.1-0.2,1.5-0.6c0.4-0.4,0.6-0.9,0.6-1.5s-0.2-1.1-0.6-1.5c-0.4-0.4-0.9-0.6-1.5-0.6
	c-0.6,0-1.1,0.2-1.5,0.6c-0.4,0.4-0.6,0.9-0.6,1.5s0.2,1.1,0.6,1.5C164.3,55.3,164.8,55.5,165.4,55.5z"/>
<path class="st1" d="M170.5,55.5c0.6,0,1.1-0.2,1.5-0.6c0.4-0.4,0.6-0.9,0.6-1.5s-0.2-1.1-0.6-1.5c-0.4-0.4-0.9-0.6-1.5-0.6
	s-1.1,0.2-1.5,0.6c-0.4,0.4-0.6,0.9-0.6,1.5s0.2,1.1,0.6,1.5C169.4,55.3,169.9,55.5,170.5,55.5z"/>
<path class="st1" d="M190,57c0.6,0,1.1-0.2,1.5-0.6c0.4-0.4,0.6-0.9,0.6-1.5s-0.2-1.1-0.6-1.5c-0.4-0.4-0.9-0.6-1.5-0.6
	c-0.6,0-1.1,0.2-1.5,0.6c-0.4,0.4-0.6,0.9-0.6,1.5s0.2,1.1,0.6,1.5C188.8,56.8,189.4,57,190,57z"/>
<path class="st1" d="M195,57c0.6,0,1.1-0.2,1.5-0.6c0.4-0.4,0.6-0.9,0.6-1.5s-0.2-1.1-0.6-1.5c-0.4-0.4-0.9-0.6-1.5-0.6
	s-1.1,0.2-1.5,0.6c-0.4,0.4-0.6,0.9-0.6,1.5s0.2,1.1,0.6,1.5C193.9,56.8,194.4,57,195,57z"/>
<path class="st1" d="M209.3,71.9h-3.2h-0.2H200h-0.4H196c-0.5,0-0.9-0.2-1-0.5c-0.1-0.4-0.2-0.8-0.2-1.5v-8.1h-4.3v8.1
	c0,0.7-0.1,1.2-0.2,1.5s-0.5,0.5-1,0.5h-3.8H185h-5.8h-0.3h-3.5c0.6-1.1,0.9-2.3,0.9-3.6c0-1.1-0.2-2.1-0.6-3.1
	c-0.4-1-1-1.8-1.7-2.5c-0.7-0.7-1.5-1.3-2.5-1.7c-1-0.4-2-0.6-3.1-0.6s-2.1,0.2-3.1,0.6c-1,0.4-1.8,1-2.5,1.7
	c-0.7,0.7-1.3,1.6-1.7,2.5c-0.4,1-0.6,2-0.6,3.1c0,1.3,0.3,2.5,0.8,3.6h-3h-0.3h-6h-0.2h-2.8c-0.5,0-0.9-0.2-1-0.5
	c-0.1-0.4-0.2-0.8-0.2-1.5v-8.1h-4.3v8.1c0,0.7-0.1,1.2-0.2,1.5s-0.5,0.5-1,0.5h-2.8h-0.1h-6H133h-5.7H127h-5.7h-0.4H115h-0.2H112
	c-0.5,0-0.9-0.2-1-0.5c-0.1-0.4-0.2-0.8-0.2-1.5v-8.1h-4.3v8.1c0,0.7-0.1,1.2-0.2,1.5s-0.5,0.5-1,0.5h-2.8h-0.1h-6h-0.4h-5.7h-0.4
	h-5.7h-0.4H78h-0.4h-5.7h-0.4H70c-0.6,0-1-0.2-1.2-0.5c-0.2-0.4-0.3-0.8-0.3-1.5v-10h-5.2c-1.4,0-2.6,0.2-3.6,0.6
	c-1.1,0.4-1.9,0.9-2.6,1.6c-0.7,0.7-1.2,1.4-1.6,2.3c-0.4,0.9-0.6,1.8-0.6,2.8c0,1.1,0.2,2.1,0.6,2.9c0.4,0.8,0.9,1.4,1.6,1.9
	c0.7,0.5,1.5,0.9,2.4,1.1c0.9,0.2,1.9,0.3,2.9,0.3h2.5c0.9,1.9,2.6,2.9,5.1,2.9h1.5h0.4h5.7H78h5.7h0.4h5.7h0.4h5.7h0.4h6h0.1h2.4
	c1.5,0,2.8-0.4,3.8-1.3c1.1,0.9,2.4,1.3,3.9,1.3h2.3h0.2h5.9h0.4h5.7h0.4h5.7h0.4h6h0.1h2.4c1.5,0,2.8-0.4,3.8-1.3
	c1.1,0.9,2.4,1.3,3.9,1.3h2.3h0.2h5.9h0.4h20.5h0.3h5.8h0.4h3.4c1.5,0,2.8-0.4,3.8-1.3c1.1,0.9,2.4,1.3,3.9,1.3h3.1h0.4h5.9h0.2h7.5
	V48.8h-4.3V71.9z M64.3,69h-1.9c-0.8,0-1.6-0.1-2.2-0.4c-0.6-0.3-0.9-0.8-0.9-1.4c0-0.8,0.4-1.5,1.1-2.1c0.7-0.6,1.7-0.9,3.1-0.9
	h0.9V69z M171,70.8c-0.7,0.7-1.5,1.1-2.5,1.1h-0.1c-1,0-1.8-0.4-2.4-1.1c-0.7-0.7-1-1.5-1-2.5c0-1,0.3-1.8,1-2.5
	c0.7-0.7,1.5-1.1,2.5-1.1c1,0,1.8,0.4,2.5,1.1c0.7,0.7,1,1.6,1,2.5C172,69.3,171.6,70.1,171,70.8z"/>
<rect x="216.5" y="48.8" class="st1" width="4.3" height="27.4"/>
<path class="st1" d="M235.5,55.1c0.6,0,1.1-0.2,1.5-0.6c0.4-0.4,0.6-0.9,0.6-1.5s-0.2-1.1-0.6-1.5c-0.4-0.4-0.9-0.6-1.5-0.6
	s-1.1,0.2-1.5,0.6c-0.4,0.4-0.6,0.9-0.6,1.5s0.2,1.1,0.6,1.5C234.3,54.9,234.9,55.1,235.5,55.1z"/>
<path class="st1" d="M240.5,55.1c0.6,0,1.1-0.2,1.5-0.6c0.4-0.4,0.6-0.9,0.6-1.5s-0.2-1.1-0.6-1.5c-0.4-0.4-0.9-0.6-1.5-0.6
	s-1.1,0.2-1.5,0.6c-0.4,0.4-0.6,0.9-0.6,1.5s0.2,1.1,0.6,1.5C239.4,54.9,239.9,55.1,240.5,55.1z"/>
<path class="st1" d="M248,76.2h5.7h0.4h5.7h0.4h5.9h0.2h7.5V48.8h-4.3v23h-3.2h-0.2h-5.9h-0.4h-5.7h-0.4H248h-0.4h-1.5
	c-0.6,0-1-0.2-1.2-0.5c-0.2-0.4-0.3-0.8-0.3-1.5v-10h-5.2c-1.4,0-2.6,0.2-3.6,0.6c-1.1,0.4-1.9,0.9-2.6,1.6
	c-0.7,0.7-1.2,1.4-1.6,2.3c-0.4,0.9-0.6,1.8-0.6,2.8c0,1.1,0.2,2.1,0.6,2.9c0.4,0.8,0.9,1.4,1.6,1.9c0.7,0.5,1.5,0.9,2.4,1.1
	c0.9,0.2,1.9,0.3,2.9,0.3h2.5c0.9,1.9,2.6,2.9,5.1,2.9h1.5H248z M240.3,69h-1.9c-0.8,0-1.6-0.1-2.2-0.4c-0.6-0.3-0.9-0.8-0.9-1.4
	c0-0.8,0.4-1.5,1.1-2.1c0.7-0.6,1.7-0.9,3.1-0.9h0.9V69z"/>
<path class="st1" d="M284.3,76.2h1.2h0.3h1.2c1.8,0,3.1-0.5,4.1-1.5c1.2,1,2.8,1.5,4.6,1.5c1.2,0,2.2-0.2,3.1-0.6
	c0.9-0.4,1.6-1,2.3-1.7c0.6-0.7,1.1-1.5,1.4-2.5s0.5-2,0.5-3.1c0-1.1-0.2-2.1-0.5-3.1c-0.3-1-0.8-1.8-1.4-2.5
	c-0.6-0.7-1.4-1.3-2.3-1.7c-0.9-0.4-1.9-0.6-3.1-0.6s-2.2,0.2-3.1,0.6c-0.9,0.4-1.6,1-2.3,1.7c-0.6,0.7-1.1,1.6-1.4,2.5
	c-0.3,1-0.5,2-0.5,3.1v1.5c0,0.5-0.1,1-0.3,1.4c-0.2,0.4-0.5,0.6-0.9,0.6h-1.6h-0.3h-1.2c-0.6,0-1-0.2-1.2-0.5
	c-0.2-0.4-0.3-0.8-0.3-1.5v-21h-4.3v21c0,2.1,0.5,3.7,1.5,4.8S282.4,76.2,284.3,76.2z M293.7,65.7c0.5-0.7,1.2-1.1,2.1-1.1
	c0.9,0,1.6,0.3,2.1,1c0.5,0.7,0.7,1.5,0.7,2.6c0,1-0.2,1.9-0.7,2.6c-0.5,0.7-1.2,1-2.1,1c-0.9,0-1.6-0.3-2.1-1
	c-0.5-0.7-0.7-1.5-0.7-2.5C293,67.3,293.2,66.4,293.7,65.7z"/>
<path class="st1" d="M311.4,55.5c0.6,0,1.1-0.2,1.6-0.6c0.4-0.4,0.6-0.9,0.6-1.5s-0.2-1.1-0.6-1.5c-0.4-0.4-1-0.6-1.6-0.6
	c-0.6,0-1.1,0.2-1.5,0.6c-0.4,0.4-0.6,0.9-0.6,1.5s0.2,1.1,0.6,1.5C310.3,55.3,310.8,55.5,311.4,55.5z"/>
<path class="st1" d="M310.3,84c0.9-0.8,1.6-1.8,2.1-3.1c0.5-1.3,0.9-2.8,1.1-4.7h2.8h0.4h5.9h0.2h7.5V48.8H326v23h-3.2h-0.2h-5.9
	h-0.4h-2.7V60.3h-4.3v14.3c0,1.4-0.1,2.5-0.4,3.5c-0.3,0.9-0.7,1.7-1.2,2.3c-0.5,0.6-1.1,1-1.8,1.2c-0.7,0.2-1.5,0.4-2.3,0.4v4.3
	c1.3,0,2.6-0.2,3.7-0.6C308.4,85.3,309.5,84.8,310.3,84z"/>
<rect x="333.2" y="48.8" class="st1" width="4.3" height="27.4"/>
<path class="st1" d="M71.8,137.6c-0.6,0-1.1,0.2-1.5,0.6c-0.4,0.4-0.6,0.9-0.6,1.5s0.2,1.1,0.6,1.5c0.4,0.4,0.9,0.6,1.5,0.6
	c0.6,0,1.1-0.2,1.5-0.6c0.4-0.4,0.6-0.9,0.6-1.5s-0.2-1.1-0.6-1.5C72.9,137.8,72.4,137.6,71.8,137.6z"/>
<path class="st1" d="M66.7,137.6c-0.6,0-1.1,0.2-1.5,0.6c-0.4,0.4-0.6,0.9-0.6,1.5s0.2,1.1,0.6,1.5c0.4,0.4,0.9,0.6,1.5,0.6
	s1.1-0.2,1.5-0.6c0.4-0.4,0.6-0.9,0.6-1.5s-0.2-1.1-0.6-1.5C67.8,137.8,67.3,137.6,66.7,137.6z"/>
<path class="st1" d="M128.7,123.5h-4.5h-0.6h-5.5h-0.4h-5.7h-0.4H106h-0.4h-5.7h-0.4h-5.7h-0.4h-5.8h-0.3h-2.1
	c-0.4,0-0.6-0.1-0.6-0.2c0-0.1-0.1-0.3-0.1-0.6v-4.4c0-0.7-0.1-1.4-0.4-1.9c-0.3-0.6-0.6-1-1.1-1.4c-0.5-0.4-1-0.6-1.6-0.8
	c-0.6-0.2-1.3-0.3-1.9-0.3h-6v9.8c0,2.7-0.5,4.6-1.5,5.8s-2.6,1.8-4.8,1.8c-2.4-0.1-4.1-0.9-5.1-2.4c-1-1.5-1.5-3.5-1.5-5.9
	c0-0.3,0-0.8,0-1.4c0-0.6,0-1.3,0.1-2.1c0-0.7,0.1-1.5,0.2-2.3c0.1-0.8,0.1-1.4,0.2-2h-4.3c-0.1,0.6-0.2,1.3-0.2,2
	c0,0.8-0.1,1.5-0.1,2.2c0,0.7-0.1,1.4-0.1,2c0,0.6,0,1.1,0,1.4c0,1.8,0.2,3.5,0.6,5c0.4,1.5,1,2.9,1.8,4c0.8,1.1,1.9,2,3.3,2.6
	c1.3,0.6,3,1,4.9,1h0.2c3.6,0,6.2-1,8-3.1c1.8-2,2.6-5.1,2.6-9.1v-5.3h1.9c0.4,0,0.6,0.1,0.7,0.2c0.1,0.2,0.1,0.4,0.1,0.7v4.1
	c0,1.5,0.4,2.6,1.3,3.4c0.9,0.8,2.1,1.2,3.5,1.2h2h0.3h5.8h0.4h5.7h0.4h5.7h0.4h5.7h0.4h5.7h0.4h5.5h0.6h8.8v-15.8h-4.3V123.5z"/>
<path class="st1" d="M129.9,130.2c-0.6,0-1.1,0.2-1.5,0.6c-0.4,0.4-0.6,0.9-0.6,1.5c0,0.6,0.2,1.1,0.6,1.5c0.4,0.4,0.9,0.6,1.5,0.6
	s1.1-0.2,1.5-0.6s0.6-0.9,0.6-1.5c0-0.6-0.2-1.1-0.6-1.5C131,130.4,130.5,130.2,129.9,130.2z"/>
<path class="st1" d="M193.6,123.5h-3.2h-0.2h-4.2c-0.5,0-1,0-1.4,0s-0.9,0-1.4,0c1.3-0.9,2.3-1.9,3.2-3c0.8-1.1,1.3-2.3,1.5-3.7
	c0-1-0.4-1.8-1.1-2.4c-0.7-0.6-1.6-1.1-2.6-1.4c-1-0.3-2-0.6-3.1-0.7c-1-0.1-1.9-0.2-2.5-0.2c-0.8,0-1.8,0.1-2.8,0.4
	c-1,0.2-2.1,0.6-3.1,1c-1,0.4-2,0.9-3,1.4c-0.9,0.5-1.8,1-2.4,1.5c0.7,1,1.5,2,2.3,3c0.8,1,1.6,1.9,2.2,2.6l1.3,1.4
	c-0.7,0.1-1.4,0.2-2,0.2c-0.7,0-1.3,0-1.9,0h-3.9h-0.4h-5.7h-0.4H153h-0.4H147h-0.4h-2.7v-11.5h-4.3v14.3c0,1.4-0.1,2.5-0.4,3.5
	c-0.3,0.9-0.7,1.7-1.2,2.3c-0.5,0.6-1.1,1-1.8,1.2c-0.7,0.2-1.5,0.4-2.3,0.4v4.3c1.3,0,2.6-0.2,3.7-0.6c1.2-0.4,2.2-1,3-1.8
	c0.9-0.8,1.6-1.8,2.1-3.1c0.5-1.3,0.9-2.8,1.1-4.7h2.8h0.4h5.7h0.4h5.7h0.4h5.7h0.4h3.5c1.3,0,2.7-0.1,4.2-0.2
	c1.5-0.1,3.1-0.5,4.8-1.2c1.2,0.5,2.5,0.9,3.9,1.1c1.4,0.2,2.9,0.3,4.5,0.3h4.2h0.2h7.5v-27.4h-4.3V123.5z M181.7,119.4
	c-0.5,0.4-1,0.9-1.7,1.3c-0.6,0.4-1.3,0.8-1.9,1.1c-0.5-0.4-1-0.8-1.7-1.3c-0.6-0.5-1.2-1.1-1.6-1.6l-1.3-1.4
	c0.9-0.4,1.8-0.6,2.7-0.9c0.9-0.2,1.7-0.4,2.4-0.4c0.4,0,0.9,0,1.4,0c0.5,0,1.1,0.1,1.6,0.1c0.5,0.1,0.9,0.2,1.3,0.3
	c0.4,0.1,0.5,0.3,0.5,0.5c0,0.3-0.2,0.6-0.5,1C182.5,118.6,182.2,119,181.7,119.4z"/>
<rect x="200.8" y="100.4" class="st1" width="4.3" height="27.4"/>
<path class="st1" d="M238,123.5h-14.8c-1.2,0-2.1-0.4-2.7-1.2c-0.7-0.8-1-1.8-1-3c0-0.9,0-1.8,0.1-2.6c0.1-0.8,0.2-1.6,0.3-2.5
	c0-0.1,0-0.1,0-0.2c0,0,0-0.1,0-0.2h-4.4c0,0.2-0.1,0.4-0.1,0.8c0,0.4-0.1,0.9-0.1,1.4c0,0.5-0.1,1.1-0.1,1.6c0,0.6,0,1.1,0,1.6
	c0,1.2,0.2,2.3,0.6,3.3c0.4,1,0.9,1.9,1.6,2.7c0.7,0.8,1.6,1.4,2.6,1.8c1,0.4,2.2,0.6,3.4,0.6h19v-15.8H238V123.5z"/>
<path class="st1" d="M230.9,130.2c-0.6,0-1.1,0.2-1.5,0.6c-0.4,0.4-0.6,0.9-0.6,1.5c0,0.6,0.2,1.1,0.6,1.5c0.4,0.4,0.9,0.6,1.5,0.6
	s1.1-0.2,1.5-0.6c0.4-0.4,0.6-0.9,0.6-1.5c0-0.6-0.2-1.1-0.6-1.5C232,130.4,231.5,130.2,230.9,130.2z"/>
<path class="st1" d="M260.3,130.2c-0.6,0-1.1,0.2-1.5,0.6c-0.4,0.4-0.6,0.9-0.6,1.5c0,0.6,0.2,1.1,0.6,1.5c0.4,0.4,0.9,0.6,1.5,0.6
	c0.6,0,1.1-0.2,1.6-0.6c0.4-0.4,0.6-0.9,0.6-1.5c0-0.6-0.2-1.1-0.6-1.5C261.4,130.4,260.9,130.2,260.3,130.2z"/>
<path class="st1" d="M308.9,106.6c0.6,0,1.1-0.2,1.6-0.6s0.6-0.9,0.6-1.5c0-0.6-0.2-1.1-0.6-1.5s-1-0.6-1.6-0.6
	c-0.6,0-1.1,0.2-1.5,0.6c-0.4,0.4-0.6,0.9-0.6,1.5c0,0.6,0.2,1.1,0.6,1.5C307.8,106.4,308.3,106.6,308.9,106.6z"/>
<path class="st1" d="M305,107.3c-0.4,0.4-0.6,0.9-0.6,1.5s0.2,1.1,0.6,1.5c0.4,0.4,0.9,0.6,1.5,0.6c0.6,0,1.1-0.2,1.5-0.6
	c0.4-0.4,0.6-0.9,0.6-1.5s-0.2-1.1-0.6-1.5c-0.4-0.4-0.9-0.6-1.5-0.6C305.9,106.6,305.4,106.8,305,107.3z"/>
<path class="st1" d="M310,107.3c-0.4,0.4-0.6,0.9-0.6,1.5s0.2,1.1,0.6,1.5c0.4,0.4,0.9,0.6,1.5,0.6s1.1-0.2,1.5-0.6
	c0.4-0.4,0.6-0.9,0.6-1.5s-0.2-1.1-0.6-1.5c-0.4-0.4-0.9-0.6-1.5-0.6S310.5,106.8,310,107.3z"/>
<path class="st1" d="M333.3,100.4v23h0.4h-0.3h-1.7c-0.5,0-0.9-0.2-1-0.5s-0.2-0.8-0.2-1.5v-21h-4.3v21c0,0.7-0.1,1.2-0.2,1.5
	c-0.1,0.3-0.5,0.5-1,0.5h-1.4h-0.5h-1.6c-0.7,0-1.2-0.1-1.5-0.4c-0.3-0.3-0.4-0.7-0.4-1.2v-6H315v6c-0.1,0.5-0.3,0.9-0.6,1.2
	c-0.4,0.3-0.8,0.5-1.3,0.5c-0.6,0-1-0.2-1.4-0.6c-0.4-0.4-0.6-0.8-0.6-1.4v-5.8h-4.3v6c-0.1,0.5-0.3,0.9-0.6,1.2
	c-0.3,0.3-0.8,0.5-1.3,0.5c-0.5,0-1-0.2-1.4-0.6c-0.4-0.4-0.5-0.8-0.5-1.4v-5.8h-4.3v5.8c0,0.7-0.1,1.2-0.4,1.4
	c-0.3,0.3-0.8,0.4-1.5,0.4h-1.7h-0.4H289h-0.4h-9.2H279h-5.7h-0.4h-5.8h-0.3h-2.6c-0.5,0-0.9-0.2-1-0.5c-0.1-0.4-0.2-0.8-0.2-1.5
	v-8.1h-4.3v8.1c0,0.7-0.1,1.2-0.2,1.5c-0.1,0.3-0.5,0.5-1,0.5h-2.9h0h-1.5c-0.6,0-1-0.2-1.2-0.5c-0.2-0.4-0.3-0.8-0.3-1.5v-21h-4.3
	v21c0,2.1,0.5,3.7,1.5,4.8c1,1.1,2.4,1.6,4.2,1.6h1.5h0h2.4c1.5,0,2.8-0.4,3.8-1.3c1.1,0.9,2.4,1.3,3.9,1.3h2.1h0.3h5.8h0.4h5.7h0.4
	h9.2h0.4h5.7h0.4h1.7c1.6,0,2.9-0.5,4.1-1.5c1.1,1,2.4,1.5,4.1,1.5c1.6,0,2.9-0.5,4.1-1.5c1.1,1,2.4,1.5,4.1,1.5
	c0.8,0,1.6-0.1,2.3-0.4c0.7-0.3,1.3-0.6,1.9-1.1c0.5,0.5,1.2,0.9,1.9,1.1c0.7,0.3,1.5,0.4,2.3,0.4h1.6h0.5h1c1.5,0,2.8-0.4,3.8-1.3
	c1.1,0.9,2.4,1.3,3.9,1.3h1.2h0.3h3.9v-27.4H333.3z"/>
<g>
	<path class="st2" d="M59.6,159.3h1.8l3.9,9.2h-2.1l-0.8-2h-3.8l-0.8,2h-2L59.6,159.3z M61.7,164.7l-1.2-3l-1.2,3H61.7z"/>
	<path class="st2" d="M66.7,159.4h4.2c1.2,0,2.1,0.3,2.7,0.9c0.5,0.5,0.8,1.2,0.8,2.1v0c0,1.5-0.8,2.4-2,2.8l2.2,3.2h-2.3l-2-2.9
		h-1.6v2.9h-2V159.4z M70.7,163.8c1,0,1.5-0.5,1.5-1.3v0c0-0.9-0.6-1.3-1.6-1.3h-2v2.6H70.7z"/>
	<path class="st2" d="M79.2,159.3h1.8l3.9,9.2h-2.1l-0.8-2h-3.8l-0.8,2h-2L79.2,159.3z M81.3,164.7l-1.2-3l-1.2,3H81.3z"/>
	<path class="st2" d="M86.4,159.4h4.2c1,0,1.9,0.3,2.4,0.8c0.4,0.4,0.6,0.9,0.6,1.5v0c0,1-0.5,1.6-1.2,2c1.1,0.4,1.7,1,1.7,2.2v0
		c0,1.7-1.4,2.5-3.4,2.5h-4.3V159.4z M90.2,163.1c0.9,0,1.4-0.3,1.4-1v0c0-0.6-0.5-0.9-1.3-0.9h-2v1.9H90.2z M90.7,166.7
		c0.9,0,1.4-0.3,1.4-1v0c0-0.6-0.5-1-1.5-1h-2.3v2H90.7z"/>
	<path class="st2" d="M102.2,164.9l-3.5-5.5h2.3l2.2,3.7l2.2-3.7h2.3l-3.5,5.5v3.6h-2V164.9z"/>
	<path class="st2" d="M107.8,164L107.8,164c0-2.6,2-4.7,4.8-4.7s4.8,2.1,4.8,4.7v0c0,2.6-2,4.7-4.8,4.7S107.8,166.5,107.8,164z
		 M115.4,164L115.4,164c0-1.6-1.1-2.9-2.8-2.9s-2.7,1.3-2.7,2.8v0c0,1.6,1.1,2.9,2.8,2.9C114.2,166.8,115.4,165.5,115.4,164z"/>
	<path class="st2" d="M119.1,164.6v-5.2h2v5.1c0,1.5,0.7,2.2,2,2.2s2-0.7,2-2.2v-5.2h2v5.1c0,2.8-1.5,4.1-4,4.1
		S119.1,167.3,119.1,164.6z"/>
	<path class="st2" d="M130.9,161.2h-2.8v-1.8h7.5v1.8h-2.8v7.3h-2V161.2z"/>
	<path class="st2" d="M137,159.4h2v3.6h3.7v-3.6h2v9.1h-2v-3.7H139v3.7h-2V159.4z"/>
	<path class="st2" d="M152.3,161.2h-2.8v-1.8h7.5v1.8h-2.8v7.3h-2V161.2z"/>
	<path class="st2" d="M158.4,159.4h6.9v1.8h-4.9v1.8h4.3v1.8h-4.3v1.9h4.9v1.8h-6.9V159.4z"/>
	<path class="st2" d="M166.4,164L166.4,164c0-2.6,2-4.7,4.7-4.7c1.7,0,2.7,0.6,3.6,1.4l-1.3,1.5c-0.7-0.6-1.4-1-2.3-1
		c-1.5,0-2.6,1.3-2.6,2.8v0c0,1.6,1.1,2.9,2.6,2.9c1,0,1.7-0.4,2.4-1.1l1.3,1.3c-0.9,1-2,1.6-3.7,1.6
		C168.4,168.6,166.4,166.6,166.4,164z"/>
	<path class="st2" d="M176.2,159.4h2v3.6h3.7v-3.6h2v9.1h-2v-3.7h-3.7v3.7h-2V159.4z"/>
	<path class="st2" d="M186.1,159.4h1.8l4.3,5.6v-5.6h2v9.1h-1.7l-4.4-5.8v5.8h-2V159.4z"/>
	<path class="st2" d="M195.9,164L195.9,164c0-2.6,2-4.7,4.8-4.7s4.8,2.1,4.8,4.7v0c0,2.6-2,4.7-4.8,4.7
		C197.9,168.6,195.9,166.5,195.9,164z M203.5,164L203.5,164c0-1.6-1.1-2.9-2.8-2.9c-1.6,0-2.7,1.3-2.7,2.8v0c0,1.6,1.1,2.9,2.8,2.9
		C202.4,166.8,203.5,165.5,203.5,164z"/>
	<path class="st2" d="M207.4,159.4h2v7.3h4.5v1.8h-6.5V159.4z"/>
	<path class="st2" d="M214.8,164L214.8,164c0-2.6,2-4.7,4.8-4.7s4.8,2.1,4.8,4.7v0c0,2.6-2,4.7-4.8,4.7S214.8,166.5,214.8,164z
		 M222.3,164L222.3,164c0-1.6-1.1-2.9-2.8-2.9s-2.7,1.3-2.7,2.8v0c0,1.6,1.1,2.9,2.8,2.9C221.2,166.8,222.3,165.5,222.3,164z"/>
	<path class="st2" d="M226.1,164L226.1,164c0-2.6,2-4.7,4.8-4.7c1.6,0,2.6,0.4,3.6,1.2l-1.3,1.5c-0.7-0.6-1.3-0.9-2.4-0.9
		c-1.5,0-2.6,1.3-2.6,2.8v0c0,1.7,1.1,2.9,2.8,2.9c0.7,0,1.4-0.2,1.9-0.5V165h-2v-1.7h4v4c-0.9,0.8-2.2,1.4-3.9,1.4
		C228,168.6,226.1,166.6,226.1,164z"/>
	<path class="st2" d="M239.1,164.9l-3.5-5.5h2.3l2.2,3.7l2.2-3.7h2.3l-3.5,5.5v3.6h-2V164.9z"/>
	<path class="st2" d="M250.3,159.4h6.9v1.8h-4.9v1.9h4.3v1.8h-4.3v3.5h-2V159.4z"/>
	<path class="st2" d="M258.8,159.4h6.9v1.8h-4.9v1.8h4.3v1.8h-4.3v1.9h4.9v1.8h-6.9V159.4z"/>
	<path class="st2" d="M267.2,159.4h2v7.3h4.5v1.8h-6.5V159.4z"/>
	<path class="st2" d="M275.3,159.4h2v7.3h4.5v1.8h-6.5V159.4z"/>
	<path class="st2" d="M282.4,164L282.4,164c0-2.6,2-4.7,4.8-4.7s4.8,2.1,4.8,4.7v0c0,2.6-2,4.7-4.8,4.7S282.4,166.5,282.4,164z
		 M290,164L290,164c0-1.6-1.1-2.9-2.8-2.9s-2.7,1.3-2.7,2.8v0c0,1.6,1.1,2.9,2.8,2.9C288.9,166.8,290,165.5,290,164z"/>
	<path class="st2" d="M292.6,159.4h2.1l1.9,6.2l2-6.2h1.7l2,6.2l1.9-6.2h2.1l-3.1,9.2h-1.7l-2.1-6l-2.1,6h-1.7L292.6,159.4z"/>
	<path class="st2" d="M307,167.2l1.2-1.4c0.8,0.7,1.7,1.1,2.7,1.1c0.8,0,1.3-0.3,1.3-0.9v0c0-0.5-0.3-0.8-1.8-1.2
		c-1.8-0.5-3-1-3-2.8v0c0-1.7,1.3-2.7,3.2-2.7c1.3,0,2.5,0.4,3.4,1.2l-1,1.5c-0.8-0.6-1.6-0.9-2.4-0.9s-1.2,0.4-1.2,0.8v0
		c0,0.6,0.4,0.8,2,1.2c1.8,0.5,2.9,1.1,2.9,2.7v0c0,1.8-1.4,2.8-3.3,2.8C309.5,168.6,308.1,168.1,307,167.2z"/>
	<path class="st2" d="M316,159.4h2v3.6h3.7v-3.6h2v9.1h-2v-3.7H318v3.7h-2V159.4z"/>
	<path class="st2" d="M326.2,159.4h2v9.1h-2V159.4z"/>
	<path class="st2" d="M331,159.4h3.7c2.2,0,3.5,1.3,3.5,3.1v0c0,2.1-1.6,3.2-3.7,3.2H333v2.7h-2V159.4z M334.6,164
		c1,0,1.6-0.6,1.6-1.4v0c0-0.9-0.6-1.4-1.6-1.4H333v2.8H334.6z"/>
</g>
</svg>
