<?xml version="1.0" encoding="utf-8"?>
<!-- Generator: Adobe Illustrator 26.3.1, SVG Export Plug-In . SVG Version: 6.00 Build 0)  -->
<svg version="1.1" id="Layer_1" xmlns="http://www.w3.org/2000/svg" xmlns:xlink="http://www.w3.org/1999/xlink" x="0px" y="0px"
	 viewBox="0 0 700 700" style="enable-background:new 0 0 700 700;" xml:space="preserve">
<style type="text/css">
	.st0{fill:#E8853E;}
</style>
<path class="st0" d="M608.3,254.3c0-0.8-0.1-1.6-0.2-2.4c0-0.8-0.1-1.5-0.4-2.2c-0.2-1.1-0.5-2.2-0.8-3.3c-1-3.4-2.4-6.6-4.3-9.6
	c-0.2-0.4-0.5-0.8-0.8-1.2c-0.5-0.7-1.1-1.4-1.6-2c-1.3-1.5-2.7-2.9-4.2-4.2c-0.7-0.6-1.3-1.2-2.1-1.8l-1.1-0.7h0
	c-3-1.9-6.2-3.4-9.6-4.3c-1.1-0.3-2.2-0.6-3.3-0.8c-0.7-0.2-1.5-0.4-2.2-0.4c-0.8-0.2-1.6-0.2-2.4-0.2c-0.6-0.1-1.2-0.1-1.9-0.1
	h-140v-23.3c0-9.3-3.7-18.2-10.2-24.8c-6.6-6.6-15.5-10.2-24.8-10.2h-93.3c-9.3,0-18.2,3.7-24.8,10.2c-6.6,6.6-10.2,15.5-10.2,24.8
	v23.3h-140c-0.6,0-1.2,0-1.9,0.1c-0.8,0-1.6,0.1-2.5,0.2c-0.8,0-1.5,0.1-2.2,0.4c-1.1,0.2-2.2,0.5-3.3,0.8c-3.4,0.9-6.6,2.4-9.6,4.3
	c-0.4,0.2-0.8,0.5-1.2,0.8c-0.7,0.5-1.4,1.1-2,1.6c-1.5,1.3-2.9,2.7-4.2,4.2c-0.6,0.7-1.2,1.3-1.8,2.1l-0.7,1
	c-1.9,3-3.4,6.2-4.3,9.6c-0.3,1.1-0.6,2.2-0.8,3.3c-0.2,0.7-0.4,1.5-0.4,2.2c-0.2,0.8-0.2,1.6-0.2,2.4c-0.1,0.6-0.1,1.2-0.1,1.9
	v303.3c0,6.4,5.2,11.6,11.7,11.7h490c6.4,0,11.6-5.2,11.7-11.7V256.1C608.4,255.5,608.4,254.9,608.3,254.3L608.3,254.3z
	 M293.4,197.8c0-6.4,5.2-11.6,11.7-11.7h93.3c6.4,0,11.6,5.2,11.7,11.7v23.3H293.4L293.4,197.8z M118.4,256.4c0-0.4,0.1-0.7,0.1-1.1
	c0.1-0.5,0.1-1,0.1-1.5c0.4-1.5,1-2.9,1.8-4.2c0.2-0.4,0.6-0.7,0.8-1.1l0.7-0.7v0c0.4-0.5,0.9-0.9,1.4-1.3c0.1,0,0.2-0.1,0.4-0.2
	c0.7-0.4,1.3-0.7,1.9-0.9l0,0c0.6-0.3,1.2-0.6,1.9-0.7h0.4c0.4,0,0.8,0,1.2-0.1c0.5,0,0.9,0,1.4-0.1h442.9c0.4,0,0.7,0.1,1.1,0.1
	c0.5,0.1,1,0.1,1.5,0.1c1.5,0.4,2.9,1,4.2,1.8c0.4,0.2,0.7,0.6,1.1,0.8l0.3,0.4l0.4,0.4h0c0.5,0.4,0.9,0.9,1.3,1.4
	c0,0.1,0.1,0.2,0.2,0.4c0.3,0.7,0.7,1.3,0.9,1.9c0.3,0.6,0.6,1.2,0.7,1.9v0.4c0,0.4,0,0.8,0.1,1.2c0,0.5,0,0.9,0.1,1.4v69.8
	c0,15.5-6.2,30.3-17.1,41.2s-25.8,17.1-41.2,17.1H392.6v-11.7c0-9.3-3.7-18.2-10.3-24.7c-6.6-6.6-15.4-10.3-24.7-10.3h-11.7h0
	c-9.3,0-18.2,3.7-24.7,10.3c-6.6,6.6-10.3,15.4-10.3,24.7v11.7H176.7c-15.5,0-30.3-6.2-41.2-17.1s-17.1-25.8-17.1-41.2L118.4,256.4z
	 M334.2,372.8c0-6.4,5.2-11.6,11.7-11.7h11.7h0c6.4,0,11.6,5.2,11.7,11.7v46.7c0,6.4-5.2,11.6-11.7,11.7h-11.7h0
	c-6.4,0-11.6-5.2-11.7-11.7V372.8z M585.1,547.8H118.4V383.2c15.3,15.8,36.4,24.6,58.3,24.6h134.2v11.7c0,9.3,3.7,18.2,10.3,24.7
	c6.6,6.6,15.4,10.3,24.7,10.3h11.7h0c9.3,0,18.2-3.7,24.7-10.3c6.6-6.6,10.3-15.4,10.3-24.7v-11.7h134.2c22,0,43-8.9,58.3-24.6
	L585.1,547.8z"/>
<path class="st0" d="M581.4,219.9v-0.4c-0.2-0.6-0.4-1.3-0.7-1.9C581,218.3,581.3,219.1,581.4,219.9L581.4,219.9z M122.1,211.5
	c0.7-0.4,1.4-0.6,2.2-0.7h-0.4C123.3,210.9,122.6,211.1,122.1,211.5L122.1,211.5z"/>
</svg>
